<svg width="153" height="49" viewBox="0 0 153 49" fill="none" xmlns="http://www.w3.org/2000/svg">
<g filter="url(#filter0_d_92_1927)">
<path d="M17.2842 23.1273C16.6367 23.3787 15.9055 23.1045 15.5856 22.4875L9.64415 11.0465C8.95098 9.69061 9.47657 8.03768 10.8324 7.34452C10.9162 7.30643 10.9924 7.26834 11.0762 7.23026C12.6072 6.61327 14.2906 7.51209 14.7172 9.066L14.7248 9.08885L18.0992 21.5125C18.2744 22.1752 17.924 22.876 17.2842 23.1273Z" fill="#F98500"/>
<path d="M16.9643 17.3611L15.2809 18.0238C14.9686 18.1381 14.6182 17.9857 14.4888 17.6734C14.3669 17.3611 14.5192 17.0031 14.8315 16.8813L16.6368 16.1729L16.9643 17.3611Z" fill="#FA6D00"/>
<path d="M17.6192 19.7452L16.172 20.286C15.8597 20.3926 15.5169 20.2479 15.3798 19.9356C15.2579 19.6233 15.4102 19.2653 15.7302 19.1434L17.2993 18.5569L17.6192 19.7452Z" fill="#FA6D00"/>
<path d="M24.4518 11.9375C23.9415 11.5871 23.6825 10.9701 23.7968 10.3532C24.0786 8.93636 23.1645 7.55765 21.7401 7.26819C21.7249 7.26819 21.702 7.26058 21.6868 7.26058C21.1003 7.16155 20.6128 6.74261 20.43 6.17132C20.3843 6.03421 20.3309 5.8971 20.27 5.76761C19.6225 4.47269 18.0534 3.9471 16.7585 4.59456C15.5321 5.20394 14.9837 6.65882 15.5016 7.92327C15.7682 8.57835 15.8977 9.17249 15.4483 9.80472C14.6104 10.9854 14.8923 12.6231 16.0729 13.4534C16.0806 13.461 16.0958 13.4686 16.1034 13.4762C16.6138 13.8342 16.8575 14.4588 16.7356 15.0682C16.4614 16.485 17.3907 17.8637 18.8151 18.1379C20.0948 18.3817 21.3516 17.658 21.7858 16.4317C23.0807 17.0791 24.6499 16.5459 25.2974 15.2586C25.8763 14.0932 25.5182 12.684 24.4518 11.9375Z" fill="#598C44"/>
<path d="M30.3935 14.0324C30.0507 13.5144 30.0431 12.8441 30.3783 12.3185C31.1781 11.115 30.8429 9.48489 29.6394 8.68509C29.6242 8.67747 29.6089 8.66223 29.5937 8.65462C28.8472 8.18235 28.9005 7.51204 28.8396 6.7427C28.733 5.30306 27.4685 4.22141 26.0289 4.32806C24.6654 4.4347 23.6066 5.56966 23.6066 6.94075C23.6066 7.64915 23.4999 8.24329 22.8525 8.66223C21.6337 9.43919 21.2757 11.0616 22.0603 12.2804C22.0679 12.288 22.0755 12.3032 22.0831 12.3109C22.4183 12.8365 22.4183 13.5068 22.0679 14.0247C21.2833 15.2359 21.6261 16.8583 22.8372 17.6505C23.9265 18.3589 25.3738 18.1609 26.2269 17.1859C27.1867 18.2675 28.8396 18.3741 29.9212 17.422C30.8962 16.5689 31.0943 15.1216 30.3935 14.0324Z" fill="#5F9548"/>
<path d="M34.4687 21.3906L27.1562 18.9531L31.1857 6.87223C31.6732 5.41734 33.1586 4.29 34.7049 4.32809C35.6646 4.35094 36.5635 4.53375 37.3176 5.14312C38.5363 6.11812 39.0162 7.7482 38.5211 9.22594L34.4687 21.3906Z" fill="#FFB531"/>
<path d="M29.5938 15.2969V37.2344H11.3125V15.2969L13.1406 16.5156L14.9688 15.2969L16.7969 16.5156L18.625 15.2969L20.4531 16.5156L22.2812 15.2969L24.1094 16.5156L25.9375 15.2969L27.7656 16.5156L29.5938 15.2969Z" fill="#FFB531"/>
<path d="M29.5938 20.3469V37.2342H11.3125V33.5399C18.0232 31.2852 24.673 27.1795 29.5938 20.3469Z" fill="#FCAC1F"/>
<path d="M36.9062 15.2969V37.2344H29.5938V15.2969L31.4219 16.5156L33.25 15.2969L35.0781 16.5156L36.9062 15.2969Z" fill="#F98500"/>
<path d="M11.4268 39.6719C14.1191 39.6719 16.3018 37.4893 16.3018 34.7969C16.3018 32.1045 14.1191 29.9219 11.4268 29.9219C8.73437 29.9219 6.55176 32.1045 6.55176 34.7969C6.55176 37.4893 8.73437 39.6719 11.4268 39.6719Z" fill="#F35244"/>
<path d="M21.6719 26.875L22.2812 28.0938C21.5271 28.8479 21.2225 29.9447 21.4814 30.9883L21.6719 31.75H19.2344V30.8207C19.2344 29.1525 20.1789 27.6215 21.6719 26.875Z" fill="#5F9548"/>
<path d="M18.0992 39.6719C17.3299 39.6719 16.6443 39.1691 16.4234 38.4303L15.0524 33.8523C14.6715 32.5803 15.5094 31.1406 16.9186 31.1406C17.6041 31.1406 18.2363 31.4986 18.5867 32.0852L19.8436 34.1875V37.9275C19.8436 38.8873 19.059 39.6719 18.0992 39.6719Z" fill="#FA9F0C"/>
<path d="M22.8068 39.6719C23.5762 39.6719 24.2617 39.1691 24.4826 38.4303L25.8537 33.8523C26.2422 32.565 25.3891 31.1406 23.9875 31.1406C23.302 31.1406 22.6697 31.4986 22.3193 32.0852L21.0625 34.1875V37.9275C21.0625 38.8873 21.8471 39.6719 22.8068 39.6719Z" fill="#FA9F0C"/>
<path d="M20.4531 31.1406C21.4662 31.1406 22.2812 31.9557 22.2812 32.9688V37.8438C22.2812 38.8568 21.4662 39.6719 20.4531 39.6719C19.44 39.6719 18.625 38.8568 18.625 37.8438V32.9688C18.625 31.9557 19.44 31.1406 20.4531 31.1406Z" fill="#FFB531"/>
<path d="M37.6983 4.6708C36.571 3.76436 35.0247 3.49014 33.5546 3.9167C32.1226 4.33564 31.0485 5.34873 30.6067 6.68174L28.1464 14.0704L27.8569 13.6438L26.8362 14.3218V11.8614L28.5272 10.7341L27.8493 9.721L26.8286 10.3989V7.60342H25.6099V10.3913L24.5968 9.71338L23.9189 10.7265L25.6099 11.8538V14.3142L24.5968 13.6362L23.9189 14.6493L24.8558 15.2739L24.1017 15.7767L22.6087 14.7864C22.5401 14.7407 22.4716 14.7103 22.3954 14.695C22.4411 14.5808 22.5021 14.4665 22.5706 14.3599C23.0429 13.6362 23.0429 12.7069 22.5782 11.9757C22.1517 11.3282 22.1669 10.3608 22.6087 9.71338C22.7991 9.43916 23.5761 8.8831 23.7817 8.60889C24.1855 8.07568 24.2312 7.46631 24.2769 6.93311C24.3073 6.51416 24.3378 6.14854 24.5206 5.8667C25.1071 4.92979 26.3487 4.64795 27.2857 5.23447C27.4837 5.35635 27.6513 5.51631 27.796 5.6915C28.1235 6.10283 28.154 6.51416 28.1921 7.07021C28.2073 7.26064 28.2226 7.46631 28.2454 7.67959L29.4565 7.52725C29.4337 7.34443 29.4185 7.16162 29.4108 6.98643C29.3651 6.32373 29.3118 5.6458 28.7558 4.9374C27.6513 3.53584 25.6251 3.29971 24.2235 4.39658C23.9341 4.6251 23.6827 4.89932 23.4847 5.21162C23.1495 5.74482 23.1038 6.32373 23.0581 6.82646C23.0505 6.94072 23.0429 7.04736 23.0276 7.154C22.6544 6.90264 22.2278 6.72744 21.7784 6.64365C21.4128 6.58271 21.1081 6.32373 20.9939 5.97334C20.7272 5.14307 20.1483 4.45752 19.3714 4.06143C18.6097 3.65771 17.7185 3.58154 16.8958 3.84814C15.6847 4.25186 14.8011 5.38682 14.6944 6.68936C14.6563 7.18447 14.7782 7.61865 14.9001 8.00713C14.3288 7.07021 13.331 6.47607 12.2341 6.40752L12.2569 3.70342L11.0382 3.6958L11.0229 5.45537L10.2917 3.58154L9.17959 4.04619L9.91084 5.92002L8.70732 4.64033L7.82373 5.47061L9.67471 7.45107C8.66924 8.48701 8.43311 10.0409 9.10342 11.3206L10.3679 13.7581L11.4495 13.1944L10.1851 10.7569C9.64424 9.71338 10.0479 8.42607 11.0915 7.88525C12.1351 7.34443 13.4224 7.74814 13.9632 8.7917C14.0317 8.92881 14.0851 9.06592 14.1308 9.21826L14.1536 9.29443L12.1884 10.0638L12.6302 11.1987L14.4735 10.4827V10.4903C14.3593 10.9245 14.3288 11.3739 14.405 11.8233L13.0796 12.3413L13.5214 13.4763L14.8315 12.9659C15.1362 13.4763 15.6618 13.9485 15.6618 13.9485L13.9632 14.6112L14.1612 15.1063L13.1481 15.7843L11.6552 14.794C11.3733 14.6036 11.0001 14.6798 10.8097 14.9616C10.7411 15.0606 10.7106 15.1825 10.7106 15.2968V28.0936H11.9294V16.4317L12.813 17.0183C13.0187 17.1554 13.2853 17.1554 13.4909 17.0183L14.9839 16.028L16.4769 17.0183C16.6825 17.1554 16.9491 17.1554 17.1548 17.0183L18.6478 16.028L20.1407 17.0183C20.3464 17.1554 20.613 17.1554 20.8187 17.0183L22.3116 16.028L23.8046 17.0183C24.0103 17.1554 24.2769 17.1554 24.4825 17.0183L25.9755 16.028L27.4685 17.0183C27.6741 17.1554 27.9407 17.1554 28.1464 17.0183L29.03 16.4317V36.6249H26.5925V37.8436H36.9519C37.287 37.8436 37.5612 37.5694 37.5612 37.2343V15.2968C37.5612 15.114 37.4774 14.9464 37.3403 14.8321L39.1456 9.42393C39.6712 7.70244 39.1075 5.80576 37.6983 4.6708ZM21.5728 12.6612C21.6261 12.745 21.6642 12.8364 21.687 12.9354L21.2681 13.5524L20.3388 11.2673L21.1538 10.0638C20.9405 10.9397 21.0776 11.9147 21.5728 12.6612ZM17.3224 15.4415C17.4823 14.794 17.3528 14.1161 16.9796 13.5677C16.6216 13.0497 16.0503 12.6917 15.7608 12.128C15.6085 11.831 15.5476 11.4882 15.5856 11.153C15.6771 10.4065 16.2407 9.78193 16.3245 9.03545C16.3855 8.48701 16.1646 7.95381 16.0503 7.41299C15.7837 6.21709 16.5378 5.00596 17.8251 4.94502C18.4497 4.92217 19.0438 5.18877 19.4399 5.66865C19.7903 6.10283 19.9503 6.67412 20.3007 7.11592C20.5597 7.44346 20.9101 7.67959 21.3062 7.79385C21.6946 7.9081 22.1517 7.92334 22.4106 8.23564C21.9612 8.55557 21.5956 8.97451 21.3442 9.46963L20.4759 8.89072L19.7903 9.88096L18.7392 7.31396L17.6194 7.771L18.663 10.3456L17.4747 10.1171L17.231 11.3054L19.1886 11.7472L20.1407 13.9866L18.9524 13.7581L18.8077 14.4741C18.8001 14.4817 17.6347 15.213 17.3224 15.4415ZM19.4399 15.1063L20.6968 15.3653L20.7806 15.571L20.453 15.7843L19.4399 15.1063ZM27.3009 15.472L27.7731 15.1521L27.598 15.67L27.3009 15.472ZM30.203 16.4317L31.0866 17.0183C31.2923 17.1554 31.5589 17.1554 31.7646 17.0183L32.6481 16.4317V33.319L30.2106 35.7565V16.4317H30.203ZM36.2968 16.4317V35.7565L33.8593 33.319V16.4317L34.7429 17.0183C34.9485 17.1554 35.2151 17.1554 35.4208 17.0183L36.2968 16.4317ZM33.2499 34.4388L35.436 36.6249H31.0638L33.2499 34.4388ZM37.9421 9.03545L35.8702 15.2511L35.078 15.7767L33.5851 14.7864C33.3794 14.6493 33.1128 14.6493 32.9071 14.7864L31.4142 15.7767C31.4142 15.7767 29.8907 14.7636 29.8755 14.756C29.6774 14.6493 29.4337 14.6645 29.2509 14.7864L29.1595 14.8474L31.7569 7.0626C32.0769 6.11045 32.8538 5.39443 33.8974 5.08213C34.979 4.76221 36.114 4.96025 36.9366 5.61533C37.9497 6.43799 38.3534 7.80147 37.9421 9.03545Z" fill="black"/>
<path d="M32.5288 8.61157L36.1864 8.0032L36.3863 9.20489L32.7287 9.81326L32.5288 8.61157Z" fill="black"/>
<path d="M31.3091 12.2659L34.9667 11.6575L35.1666 12.8592L31.509 13.4676L31.3091 12.2659Z" fill="black"/>
<path d="M23.9949 30.5312C23.3246 30.5236 22.6771 30.7902 22.2049 31.2701C22.1973 31.2625 22.1896 31.2548 22.182 31.2396L22.083 30.8359C22.083 30.8283 22.083 30.8283 22.0754 30.8207C21.8393 29.9904 22.3115 28.9392 22.7229 28.5279C22.9057 28.3451 22.9514 28.0556 22.8371 27.8271L22.2277 26.6084C22.0754 26.3037 21.7098 26.1818 21.4127 26.3341C19.7064 27.1796 18.6324 28.924 18.64 30.8207V31.1482C18.4953 31.0416 18.3354 30.9425 18.1754 30.8511C16.9947 30.2189 15.4637 30.615 14.7629 31.7271C14.3592 32.3746 14.2525 33.2505 14.4811 34.0199L15.2732 36.663C14.2221 38.773 11.6627 39.6337 9.55273 38.5902C7.46563 37.5543 6.59727 35.033 7.60273 32.9306C7.61797 32.9002 7.6332 32.8697 7.64844 32.8392L7.67129 34.9111L8.89004 34.8959L8.85195 32.3593L11.2818 32.4736L11.3428 31.2548L9.22519 31.1558C9.85742 30.7673 10.5887 30.5541 11.3275 30.5312C12.2111 30.5084 13.0795 30.7597 13.8107 31.2548L14.4887 30.2418C13.1176 29.3201 11.4037 29.0687 9.82695 29.5486L10.0859 28.9392L8.96621 28.4593L8.12832 30.4093C8.06738 30.455 7.99883 30.5084 7.93789 30.5617L6.0793 28.7031L5.21855 29.5638L7.09238 31.4377C7.0543 31.491 7.01621 31.5443 6.97812 31.5976L4.98242 32.4507L5.4623 33.5705L6.16309 33.2658C5.31758 36.1755 6.99336 39.2148 9.90312 40.0603C11.8227 40.6164 13.8945 40.0832 15.3113 38.6664C15.4561 38.5216 15.5932 38.3617 15.7227 38.2017L15.8445 38.5978C16.2178 39.847 17.5279 40.5478 18.7771 40.1746C18.9523 40.1212 19.1123 40.0527 19.2723 39.9613C20.0111 40.3726 20.91 40.3726 21.6488 39.9613C22.7762 40.6087 24.2158 40.2127 24.8633 39.0853C24.9547 38.933 25.0232 38.7654 25.0766 38.5902L26.4477 34.0123C26.5314 33.7076 26.5695 33.3877 26.5543 33.0677C26.5467 31.6738 25.4041 30.5312 23.9949 30.5312ZM21.4203 27.7357L21.5574 28.0099C21.0775 28.6726 20.7348 29.64 20.7957 30.5541C20.6205 30.5236 20.1406 30.5007 19.8512 30.6074C19.9121 29.4572 20.491 28.406 21.4203 27.7357ZM17.01 38.255L15.6389 33.6771C15.5094 33.2429 15.5703 32.725 15.7836 32.3822C16.134 31.8185 16.9795 31.6052 17.5889 31.9328C17.8783 32.0851 17.9926 32.1918 18.1068 32.3365C18.0535 32.5421 18.023 32.7554 18.023 32.9687V37.8437C18.023 38.2627 18.1297 38.674 18.3354 39.0396C17.7488 39.1615 17.1775 38.8187 17.01 38.255ZM19.2342 37.8437V32.9687C19.2342 32.2984 19.7826 31.75 20.4529 31.75C21.1232 31.75 21.6717 32.2984 21.6717 32.9687V37.8437C21.6717 38.514 21.1232 39.0625 20.4529 39.0625C19.7826 39.0625 19.2342 38.514 19.2342 37.8437ZM25.2746 33.6771L23.9035 38.255C23.7359 38.8187 23.157 39.1615 22.5781 39.0396C22.7838 38.674 22.8904 38.2627 22.8904 37.8437V32.9687C22.8904 32.7783 22.8676 32.5955 22.8219 32.4127C22.9818 32.1689 23.3475 31.75 23.9873 31.75C24.7262 31.75 25.3203 32.3517 25.3203 33.083C25.3355 33.281 25.3203 33.4867 25.2746 33.6771Z" fill="black"/>
</g>
<g filter="url(#filter1_d_92_1927)">
<path d="M59.505 21.21C58.441 21.21 57.447 21.014 56.523 20.622C55.599 20.23 54.787 19.691 54.087 19.005C53.387 18.305 52.834 17.5 52.428 16.59C52.036 15.68 51.84 14.7 51.84 13.65C51.84 12.6 52.036 11.62 52.428 10.71C52.834 9.8 53.387 9.002 54.087 8.316C54.787 7.616 55.599 7.07 56.523 6.678C57.447 6.286 58.441 6.09 59.505 6.09C60.163 6.09 60.8 6.16 61.416 6.3C62.032 6.44 62.599 6.65 63.117 6.93C63.327 7.042 63.481 7.196 63.579 7.392C63.691 7.574 63.747 7.763 63.747 7.959C63.747 8.295 63.635 8.596 63.411 8.862C63.187 9.128 62.9 9.261 62.55 9.261C62.438 9.261 62.319 9.247 62.193 9.219C62.081 9.191 61.969 9.149 61.857 9.093C61.507 8.939 61.136 8.82 60.744 8.736C60.352 8.652 59.939 8.61 59.505 8.61C58.595 8.61 57.762 8.841 57.006 9.303C56.264 9.751 55.669 10.36 55.221 11.13C54.787 11.886 54.57 12.726 54.57 13.65C54.57 14.56 54.787 15.4 55.221 16.17C55.669 16.94 56.264 17.556 57.006 18.018C57.762 18.466 58.595 18.69 59.505 18.69C59.925 18.69 60.387 18.648 60.891 18.564C61.395 18.48 61.808 18.368 62.13 18.228L61.941 18.858V15.267L62.298 15.582H59.967C59.603 15.582 59.295 15.463 59.043 15.225C58.805 14.987 58.686 14.686 58.686 14.322C58.686 13.958 58.805 13.657 59.043 13.419C59.295 13.181 59.603 13.062 59.967 13.062H63.411C63.775 13.062 64.076 13.188 64.314 13.44C64.552 13.678 64.671 13.979 64.671 14.343V18.795C64.671 19.075 64.601 19.306 64.461 19.488C64.335 19.67 64.188 19.817 64.02 19.929C63.376 20.321 62.669 20.636 61.899 20.874C61.143 21.098 60.345 21.21 59.505 21.21ZM68.2471 21C67.8831 21 67.5821 20.881 67.3441 20.643C67.1061 20.391 66.9871 20.083 66.9871 19.719V11.046C66.9871 10.682 67.1061 10.381 67.3441 10.143C67.5821 9.891 67.8831 9.765 68.2471 9.765C68.6111 9.765 68.9121 9.891 69.1501 10.143C69.3881 10.381 69.5071 10.682 69.5071 11.046V13.02L69.3601 11.613C69.5141 11.277 69.7101 10.983 69.9481 10.731C70.2001 10.465 70.4801 10.248 70.7881 10.08C71.0961 9.898 71.4251 9.765 71.7751 9.681C72.1251 9.597 72.4751 9.555 72.8251 9.555C73.2451 9.555 73.5951 9.674 73.8751 9.912C74.1691 10.15 74.3161 10.43 74.3161 10.752C74.3161 11.214 74.1971 11.55 73.9591 11.76C73.7211 11.956 73.4621 12.054 73.1821 12.054C72.9161 12.054 72.6711 12.005 72.4471 11.907C72.2371 11.809 71.9921 11.76 71.7121 11.76C71.4601 11.76 71.2011 11.823 70.9351 11.949C70.6831 12.061 70.4451 12.243 70.2211 12.495C70.0111 12.747 69.8361 13.062 69.6961 13.44C69.5701 13.804 69.5071 14.238 69.5071 14.742V19.719C69.5071 20.083 69.3881 20.391 69.1501 20.643C68.9121 20.881 68.6111 21 68.2471 21ZM86.5199 15.393C86.5199 16.541 86.2609 17.556 85.7429 18.438C85.2389 19.306 84.5529 19.985 83.6849 20.475C82.8309 20.965 81.8719 21.21 80.8079 21.21C79.7439 21.21 78.7779 20.965 77.9099 20.475C77.0559 19.985 76.3699 19.306 75.8519 18.438C75.3479 17.556 75.0959 16.541 75.0959 15.393C75.0959 14.245 75.3479 13.237 75.8519 12.369C76.3699 11.487 77.0559 10.801 77.9099 10.311C78.7779 9.807 79.7439 9.555 80.8079 9.555C81.8719 9.555 82.8309 9.807 83.6849 10.311C84.5529 10.801 85.2389 11.487 85.7429 12.369C86.2609 13.237 86.5199 14.245 86.5199 15.393ZM83.9999 15.393C83.9999 14.679 83.8529 14.063 83.5589 13.545C83.2789 13.013 82.8939 12.6 82.4039 12.306C81.9279 12.012 81.3959 11.865 80.8079 11.865C80.2199 11.865 79.6809 12.012 79.1909 12.306C78.7149 12.6 78.3299 13.013 78.0359 13.545C77.7559 14.063 77.6159 14.679 77.6159 15.393C77.6159 16.093 77.7559 16.709 78.0359 17.241C78.3299 17.759 78.7149 18.165 79.1909 18.459C79.6809 18.753 80.2199 18.9 80.8079 18.9C81.3959 18.9 81.9279 18.753 82.4039 18.459C82.8939 18.165 83.2789 17.759 83.5589 17.241C83.8529 16.709 83.9999 16.093 83.9999 15.393ZM93.7234 9.555C94.5214 9.555 95.2144 9.639 95.8024 9.807C96.4044 9.975 96.8664 10.213 97.1884 10.521C97.5244 10.815 97.6924 11.172 97.6924 11.592C97.6924 11.872 97.6084 12.138 97.4404 12.39C97.2724 12.628 97.0274 12.747 96.7054 12.747C96.4814 12.747 96.2924 12.719 96.1384 12.663C95.9984 12.593 95.8724 12.509 95.7604 12.411C95.6484 12.313 95.5154 12.222 95.3614 12.138C95.2214 12.054 95.0044 11.991 94.7104 11.949C94.4304 11.893 94.2204 11.865 94.0804 11.865C93.3664 11.865 92.7574 12.019 92.2534 12.327C91.7634 12.635 91.3854 13.055 91.1194 13.587C90.8534 14.105 90.7204 14.707 90.7204 15.393C90.7204 16.065 90.8534 16.667 91.1194 17.199C91.3994 17.717 91.7774 18.13 92.2534 18.438C92.7434 18.746 93.3034 18.9 93.9334 18.9C94.2834 18.9 94.5844 18.879 94.8364 18.837C95.0884 18.795 95.2984 18.732 95.4664 18.648C95.6624 18.536 95.8374 18.417 95.9914 18.291C96.1454 18.165 96.3764 18.102 96.6844 18.102C97.0484 18.102 97.3284 18.221 97.5244 18.459C97.7204 18.683 97.8184 18.963 97.8184 19.299C97.8184 19.649 97.6224 19.971 97.2304 20.265C96.8384 20.545 96.3204 20.776 95.6764 20.958C95.0464 21.126 94.3604 21.21 93.6184 21.21C92.5124 21.21 91.5534 20.958 90.7414 20.454C89.9294 19.936 89.2994 19.236 88.8514 18.354C88.4174 17.472 88.2004 16.485 88.2004 15.393C88.2004 14.245 88.4314 13.237 88.8934 12.369C89.3694 11.487 90.0204 10.801 90.8464 10.311C91.6864 9.807 92.6454 9.555 93.7234 9.555ZM104.928 21.21C103.738 21.21 102.702 20.965 101.82 20.475C100.952 19.971 100.28 19.292 99.8035 18.438C99.3415 17.584 99.1105 16.618 99.1105 15.54C99.1105 14.28 99.3625 13.209 99.8665 12.327C100.385 11.431 101.057 10.745 101.883 10.269C102.709 9.793 103.584 9.555 104.508 9.555C105.222 9.555 105.894 9.702 106.524 9.996C107.168 10.29 107.735 10.696 108.225 11.214C108.715 11.718 109.1 12.306 109.38 12.978C109.674 13.65 109.821 14.364 109.821 15.12C109.807 15.456 109.674 15.729 109.422 15.939C109.17 16.149 108.876 16.254 108.54 16.254H100.518L99.8875 14.154H107.595L107.133 14.574V14.007C107.105 13.601 106.958 13.237 106.692 12.915C106.44 12.593 106.118 12.341 105.726 12.159C105.348 11.963 104.942 11.865 104.508 11.865C104.088 11.865 103.696 11.921 103.332 12.033C102.968 12.145 102.653 12.334 102.387 12.6C102.121 12.866 101.911 13.223 101.757 13.671C101.603 14.119 101.526 14.686 101.526 15.372C101.526 16.128 101.68 16.772 101.988 17.304C102.31 17.822 102.716 18.221 103.206 18.501C103.71 18.767 104.242 18.9 104.802 18.9C105.32 18.9 105.733 18.858 106.041 18.774C106.349 18.69 106.594 18.592 106.776 18.48C106.972 18.354 107.147 18.249 107.301 18.165C107.553 18.039 107.791 17.976 108.015 17.976C108.323 17.976 108.575 18.081 108.771 18.291C108.981 18.501 109.086 18.746 109.086 19.026C109.086 19.404 108.89 19.747 108.498 20.055C108.134 20.363 107.623 20.636 106.965 20.874C106.307 21.098 105.628 21.21 104.928 21.21ZM120.257 9.765C120.621 9.765 120.922 9.891 121.16 10.143C121.398 10.381 121.517 10.682 121.517 11.046V19.971C121.517 21.259 121.272 22.281 120.782 23.037C120.306 23.807 119.662 24.36 118.85 24.696C118.038 25.032 117.128 25.2 116.12 25.2C115.672 25.2 115.196 25.165 114.692 25.095C114.188 25.025 113.775 24.92 113.453 24.78C113.033 24.598 112.739 24.367 112.571 24.087C112.417 23.821 112.389 23.534 112.487 23.226C112.613 22.82 112.816 22.54 113.096 22.386C113.376 22.246 113.67 22.232 113.978 22.344C114.202 22.414 114.496 22.519 114.86 22.659C115.224 22.813 115.644 22.89 116.12 22.89C116.764 22.89 117.296 22.799 117.716 22.617C118.15 22.449 118.472 22.155 118.682 21.735C118.906 21.329 119.018 20.769 119.018 20.055V18.648L119.459 19.152C119.221 19.614 118.92 19.999 118.556 20.307C118.206 20.601 117.786 20.825 117.296 20.979C116.806 21.133 116.246 21.21 115.616 21.21C114.874 21.21 114.223 21.042 113.663 20.706C113.117 20.356 112.69 19.88 112.382 19.278C112.074 18.662 111.92 17.962 111.92 17.178V11.046C111.92 10.682 112.039 10.381 112.277 10.143C112.515 9.891 112.816 9.765 113.18 9.765C113.544 9.765 113.845 9.891 114.083 10.143C114.321 10.381 114.44 10.682 114.44 11.046V16.422C114.44 17.332 114.636 17.976 115.028 18.354C115.434 18.718 115.994 18.9 116.708 18.9C117.198 18.9 117.611 18.809 117.947 18.627C118.283 18.431 118.542 18.151 118.724 17.787C118.906 17.409 118.997 16.954 118.997 16.422V11.046C118.997 10.682 119.116 10.381 119.354 10.143C119.592 9.891 119.893 9.765 120.257 9.765ZM126.618 19.719C126.618 20.083 126.499 20.391 126.261 20.643C126.023 20.881 125.722 21 125.358 21C124.994 21 124.693 20.881 124.455 20.643C124.217 20.391 124.098 20.083 124.098 19.719V11.046C124.098 10.682 124.217 10.381 124.455 10.143C124.693 9.891 124.994 9.765 125.358 9.765C125.722 9.765 126.023 9.891 126.261 10.143C126.499 10.381 126.618 10.682 126.618 11.046V19.719ZM125.337 8.4C124.861 8.4 124.525 8.323 124.329 8.169C124.133 8.015 124.035 7.742 124.035 7.35V6.951C124.035 6.545 124.14 6.272 124.35 6.132C124.574 5.978 124.91 5.901 125.358 5.901C125.848 5.901 126.191 5.978 126.387 6.132C126.583 6.286 126.681 6.559 126.681 6.951V7.35C126.681 7.756 126.576 8.036 126.366 8.19C126.156 8.33 125.813 8.4 125.337 8.4ZM128.557 19.257C128.417 19.061 128.354 18.809 128.368 18.501C128.382 18.193 128.564 17.927 128.914 17.703C129.138 17.563 129.376 17.507 129.628 17.535C129.88 17.549 130.125 17.675 130.363 17.913C130.769 18.319 131.196 18.634 131.644 18.858C132.092 19.082 132.652 19.194 133.324 19.194C133.534 19.18 133.765 19.152 134.017 19.11C134.269 19.054 134.486 18.942 134.668 18.774C134.864 18.592 134.962 18.319 134.962 17.955C134.962 17.647 134.857 17.402 134.647 17.22C134.437 17.038 134.157 16.884 133.807 16.758C133.471 16.632 133.093 16.513 132.673 16.401C132.239 16.275 131.791 16.135 131.329 15.981C130.881 15.827 130.468 15.631 130.09 15.393C129.712 15.141 129.404 14.812 129.166 14.406C128.928 14 128.809 13.489 128.809 12.873C128.809 12.173 129.005 11.578 129.397 11.088C129.789 10.598 130.293 10.22 130.909 9.954C131.539 9.688 132.197 9.555 132.883 9.555C133.317 9.555 133.772 9.611 134.248 9.723C134.724 9.821 135.179 9.989 135.613 10.227C136.047 10.451 136.411 10.752 136.705 11.13C136.859 11.34 136.95 11.592 136.978 11.886C137.006 12.18 136.873 12.446 136.579 12.684C136.369 12.852 136.124 12.929 135.844 12.915C135.564 12.887 135.333 12.789 135.151 12.621C134.913 12.313 134.591 12.068 134.185 11.886C133.793 11.704 133.338 11.613 132.82 11.613C132.61 11.613 132.379 11.641 132.127 11.697C131.889 11.739 131.679 11.844 131.497 12.012C131.315 12.166 131.224 12.418 131.224 12.768C131.224 13.09 131.329 13.349 131.539 13.545C131.749 13.727 132.029 13.881 132.379 14.007C132.743 14.119 133.128 14.231 133.534 14.343C133.954 14.455 134.381 14.588 134.815 14.742C135.249 14.896 135.648 15.099 136.012 15.351C136.376 15.603 136.67 15.932 136.894 16.338C137.118 16.73 137.23 17.234 137.23 17.85C137.23 18.564 137.02 19.173 136.6 19.677C136.18 20.181 135.655 20.566 135.025 20.832C134.395 21.084 133.751 21.21 133.093 21.21C132.267 21.21 131.441 21.07 130.615 20.79C129.789 20.496 129.103 19.985 128.557 19.257ZM145.24 9.555C146.248 9.555 147.011 9.772 147.529 10.206C148.061 10.64 148.425 11.221 148.621 11.949C148.817 12.663 148.915 13.461 148.915 14.343V19.719C148.915 20.083 148.796 20.391 148.558 20.643C148.32 20.881 148.019 21 147.655 21C147.291 21 146.99 20.881 146.752 20.643C146.514 20.391 146.395 20.083 146.395 19.719V14.343C146.395 13.881 146.339 13.468 146.227 13.104C146.115 12.726 145.912 12.425 145.618 12.201C145.324 11.977 144.904 11.865 144.358 11.865C143.826 11.865 143.371 11.977 142.993 12.201C142.615 12.425 142.328 12.726 142.132 13.104C141.95 13.468 141.859 13.881 141.859 14.343V19.719C141.859 20.083 141.74 20.391 141.502 20.643C141.264 20.881 140.963 21 140.599 21C140.235 21 139.934 20.881 139.696 20.643C139.458 20.391 139.339 20.083 139.339 19.719V6.741C139.339 6.377 139.458 6.076 139.696 5.838C139.934 5.586 140.235 5.46 140.599 5.46C140.963 5.46 141.264 5.586 141.502 5.838C141.74 6.076 141.859 6.377 141.859 6.741V11.949L141.544 11.886C141.67 11.648 141.845 11.396 142.069 11.13C142.293 10.85 142.566 10.591 142.888 10.353C143.21 10.115 143.567 9.926 143.959 9.786C144.351 9.632 144.778 9.555 145.24 9.555Z" fill="#3BB77E"/>
<path d="M56.698 40.14C55.9793 40.14 55.312 40.014 54.696 39.762C54.0893 39.5007 53.5527 39.1413 53.086 38.684C52.6287 38.2267 52.2693 37.6947 52.008 37.088C51.756 36.472 51.63 35.8093 51.63 35.1C51.63 34.3813 51.756 33.7187 52.008 33.112C52.2693 32.496 52.6287 31.9593 53.086 31.502C53.5527 31.0447 54.0893 30.69 54.696 30.438C55.312 30.186 55.9793 30.06 56.698 30.06C57.174 30.06 57.6313 30.116 58.07 30.228C58.518 30.3307 58.924 30.494 59.288 30.718C59.3813 30.7647 59.4467 30.83 59.484 30.914C59.5307 30.998 59.554 31.0867 59.554 31.18C59.554 31.3387 59.498 31.474 59.386 31.586C59.2833 31.698 59.162 31.754 59.022 31.754C58.966 31.754 58.91 31.7447 58.854 31.726C58.8073 31.7073 58.756 31.6887 58.7 31.67C58.4107 31.5207 58.098 31.404 57.762 31.32C57.426 31.2267 57.0713 31.18 56.698 31.18C55.9607 31.18 55.298 31.3527 54.71 31.698C54.1313 32.0433 53.674 32.51 53.338 33.098C53.002 33.686 52.834 34.3533 52.834 35.1C52.834 35.8373 53.002 36.5047 53.338 37.102C53.674 37.69 54.1313 38.1567 54.71 38.502C55.298 38.8473 55.9607 39.02 56.698 39.02C57.0713 39.02 57.454 38.9687 57.846 38.866C58.2473 38.7633 58.588 38.6327 58.868 38.474L58.77 38.81V35.856L58.994 36.052H56.852C56.6933 36.052 56.558 36.0007 56.446 35.898C56.3433 35.786 56.292 35.6507 56.292 35.492C56.292 35.3333 56.3433 35.2027 56.446 35.1C56.558 34.988 56.6933 34.932 56.852 34.932H59.4C59.568 34.932 59.7033 34.988 59.806 35.1C59.9087 35.212 59.96 35.3473 59.96 35.506V38.74C59.96 38.852 59.932 38.95 59.876 39.034C59.8293 39.118 59.764 39.188 59.68 39.244C59.26 39.5147 58.7933 39.734 58.28 39.902C57.776 40.0607 57.2487 40.14 56.698 40.14ZM62.6104 40C62.433 40 62.279 39.944 62.1484 39.832C62.027 39.72 61.9664 39.5847 61.9664 39.426V30.76C61.9664 30.6013 62.0177 30.4707 62.1204 30.368C62.2324 30.256 62.3677 30.2 62.5264 30.2H66.3904C66.913 30.2 67.3844 30.3213 67.8044 30.564C68.2244 30.7973 68.5557 31.124 68.7984 31.544C69.0504 31.9547 69.1764 32.4307 69.1764 32.972C69.1764 33.364 69.1017 33.7327 68.9524 34.078C68.803 34.414 68.5977 34.708 68.3364 34.96C68.075 35.2027 67.7764 35.3893 67.4404 35.52L67.1324 35.296C67.4497 35.3707 67.7344 35.506 67.9864 35.702C68.2384 35.8887 68.4437 36.1313 68.6024 36.43C68.761 36.7193 68.845 37.06 68.8544 37.452C68.873 37.7973 68.8964 38.0727 68.9244 38.278C68.9524 38.4833 68.9944 38.6467 69.0504 38.768C69.1064 38.88 69.1857 38.9687 69.2884 39.034C69.419 39.118 69.503 39.23 69.5404 39.37C69.587 39.51 69.5637 39.6453 69.4704 39.776C69.4144 39.86 69.335 39.9207 69.2324 39.958C69.1297 39.986 69.027 39.9953 68.9244 39.986C68.8217 39.9767 68.733 39.9487 68.6584 39.902C68.509 39.818 68.3644 39.6967 68.2244 39.538C68.0844 39.37 67.9677 39.132 67.8744 38.824C67.781 38.516 67.7344 38.096 67.7344 37.564C67.7344 37.2653 67.6877 37.018 67.5944 36.822C67.501 36.626 67.375 36.4673 67.2164 36.346C67.0577 36.2247 66.8804 36.1407 66.6844 36.094C66.4884 36.0473 66.2877 36.024 66.0824 36.024H62.9604L63.1284 35.772V39.426C63.1284 39.5847 63.0817 39.72 62.9884 39.832C62.895 39.944 62.769 40 62.6104 40ZM62.9604 35.016H66.3904C66.661 34.9973 66.913 34.904 67.1464 34.736C67.389 34.568 67.585 34.3347 67.7344 34.036C67.893 33.728 67.9724 33.3827 67.9724 33C67.9724 32.5053 67.8137 32.0947 67.4964 31.768C67.1884 31.4413 66.7964 31.278 66.3204 31.278H63.0164L63.1284 31.012V35.268L62.9604 35.016ZM80.1246 35.1C80.1246 35.8187 80.0079 36.486 79.7746 37.102C79.5413 37.7087 79.2146 38.2407 78.7946 38.698C78.3746 39.1553 77.8753 39.51 77.2966 39.762C76.7179 40.014 76.0879 40.14 75.4066 40.14C74.7159 40.14 74.0813 40.014 73.5026 39.762C72.9333 39.51 72.4386 39.1553 72.0186 38.698C71.5986 38.2407 71.2719 37.7087 71.0386 37.102C70.8053 36.486 70.6886 35.8187 70.6886 35.1C70.6886 34.372 70.8053 33.7047 71.0386 33.098C71.2719 32.482 71.5986 31.95 72.0186 31.502C72.4386 31.0447 72.9333 30.69 73.5026 30.438C74.0813 30.186 74.7159 30.06 75.4066 30.06C76.0879 30.06 76.7179 30.186 77.2966 30.438C77.8753 30.69 78.3746 31.0447 78.7946 31.502C79.2146 31.95 79.5413 32.482 79.7746 33.098C80.0079 33.7047 80.1246 34.372 80.1246 35.1ZM78.9206 35.1C78.9206 34.3347 78.7666 33.658 78.4586 33.07C78.1599 32.482 77.7493 32.02 77.2266 31.684C76.7039 31.348 76.0973 31.18 75.4066 31.18C74.7159 31.18 74.1046 31.348 73.5726 31.684C73.0499 32.02 72.6393 32.482 72.3406 33.07C72.0419 33.658 71.8926 34.3347 71.8926 35.1C71.8926 35.856 72.0419 36.5327 72.3406 37.13C72.6393 37.718 73.0499 38.18 73.5726 38.516C74.1046 38.852 74.7159 39.02 75.4066 39.02C76.0973 39.02 76.7039 38.852 77.2266 38.516C77.7493 38.18 78.1599 37.718 78.4586 37.13C78.7666 36.5327 78.9206 35.856 78.9206 35.1ZM89.038 30.844C89.1967 30.928 89.2853 31.054 89.304 31.222C89.332 31.39 89.29 31.544 89.178 31.684C89.094 31.8053 88.9867 31.8707 88.856 31.88C88.7253 31.8893 88.5947 31.8613 88.464 31.796C88.156 31.6093 87.8247 31.4647 87.47 31.362C87.1153 31.25 86.742 31.194 86.35 31.194C85.7993 31.194 85.2953 31.292 84.838 31.488C84.3807 31.6747 83.984 31.9407 83.648 32.286C83.312 32.6313 83.0507 33.042 82.864 33.518C82.6773 33.994 82.584 34.5213 82.584 35.1C82.584 35.716 82.682 36.2667 82.878 36.752C83.074 37.2373 83.34 37.6527 83.676 37.998C84.0213 38.334 84.418 38.5907 84.866 38.768C85.3233 38.9453 85.818 39.034 86.35 39.034C86.7327 39.034 87.1013 38.9827 87.456 38.88C87.8107 38.7773 88.1467 38.628 88.464 38.432C88.5947 38.3667 88.7253 38.3433 88.856 38.362C88.9867 38.3807 89.0987 38.446 89.192 38.558C89.304 38.7073 89.346 38.866 89.318 39.034C89.29 39.1927 89.2013 39.3093 89.052 39.384C88.8187 39.524 88.5527 39.6547 88.254 39.776C87.9553 39.888 87.6427 39.9767 87.316 40.042C86.9987 40.1073 86.6767 40.14 86.35 40.14C85.678 40.14 85.0433 40.0233 84.446 39.79C83.8487 39.5567 83.3213 39.2207 82.864 38.782C82.4067 38.3433 82.0427 37.816 81.772 37.2C81.5107 36.5747 81.38 35.8747 81.38 35.1C81.38 34.372 81.506 33.7047 81.758 33.098C82.01 32.4913 82.36 31.964 82.808 31.516C83.2653 31.068 83.7927 30.718 84.39 30.466C84.9967 30.214 85.65 30.088 86.35 30.088C86.8353 30.088 87.3067 30.1533 87.764 30.284C88.2307 30.4147 88.6553 30.6013 89.038 30.844ZM91.5654 30.2H96.5494C96.7081 30.2 96.8434 30.2513 96.9554 30.354C97.0674 30.4567 97.1234 30.5873 97.1234 30.746C97.1234 30.9047 97.0674 31.0353 96.9554 31.138C96.8434 31.2313 96.7081 31.278 96.5494 31.278H92.0414L92.1674 31.04V34.582L92.0274 34.428H95.9194C96.0781 34.428 96.2134 34.4793 96.3254 34.582C96.4374 34.6847 96.4934 34.8153 96.4934 34.974C96.4934 35.1327 96.4374 35.2633 96.3254 35.366C96.2134 35.4593 96.0781 35.506 95.9194 35.506H92.0694L92.1674 35.38V39.006L92.0834 38.908H96.5494C96.7081 38.908 96.8434 38.964 96.9554 39.076C97.0674 39.188 97.1234 39.314 97.1234 39.454C97.1234 39.6127 97.0674 39.7433 96.9554 39.846C96.8434 39.9487 96.7081 40 96.5494 40H91.5654C91.4068 40 91.2714 39.944 91.1594 39.832C91.0568 39.72 91.0054 39.5847 91.0054 39.426V30.76C91.0054 30.6013 91.0568 30.4707 91.1594 30.368C91.2714 30.256 91.4068 30.2 91.5654 30.2ZM99.6338 40C99.4565 40 99.3025 39.944 99.1718 39.832C99.0505 39.72 98.9898 39.5847 98.9898 39.426V30.76C98.9898 30.6013 99.0411 30.4707 99.1438 30.368C99.2558 30.256 99.3911 30.2 99.5498 30.2H103.414C103.936 30.2 104.408 30.3213 104.828 30.564C105.248 30.7973 105.579 31.124 105.822 31.544C106.074 31.9547 106.2 32.4307 106.2 32.972C106.2 33.364 106.125 33.7327 105.976 34.078C105.826 34.414 105.621 34.708 105.36 34.96C105.098 35.2027 104.8 35.3893 104.464 35.52L104.156 35.296C104.473 35.3707 104.758 35.506 105.01 35.702C105.262 35.8887 105.467 36.1313 105.626 36.43C105.784 36.7193 105.868 37.06 105.878 37.452C105.896 37.7973 105.92 38.0727 105.948 38.278C105.976 38.4833 106.018 38.6467 106.074 38.768C106.13 38.88 106.209 38.9687 106.312 39.034C106.442 39.118 106.526 39.23 106.564 39.37C106.61 39.51 106.587 39.6453 106.494 39.776C106.438 39.86 106.358 39.9207 106.256 39.958C106.153 39.986 106.05 39.9953 105.948 39.986C105.845 39.9767 105.756 39.9487 105.682 39.902C105.532 39.818 105.388 39.6967 105.248 39.538C105.108 39.37 104.991 39.132 104.898 38.824C104.804 38.516 104.758 38.096 104.758 37.564C104.758 37.2653 104.711 37.018 104.618 36.822C104.524 36.626 104.398 36.4673 104.24 36.346C104.081 36.2247 103.904 36.1407 103.708 36.094C103.512 36.0473 103.311 36.024 103.106 36.024H99.9838L100.152 35.772V39.426C100.152 39.5847 100.105 39.72 100.012 39.832C99.9185 39.944 99.7925 40 99.6338 40ZM99.9838 35.016H103.414C103.684 34.9973 103.936 34.904 104.17 34.736C104.412 34.568 104.608 34.3347 104.758 34.036C104.916 33.728 104.996 33.3827 104.996 33C104.996 32.5053 104.837 32.0947 104.52 31.768C104.212 31.4413 103.82 31.278 103.344 31.278H100.04L100.152 31.012V35.268L99.9838 35.016ZM114.141 30.144C114.3 30.144 114.431 30.2047 114.533 30.326C114.645 30.438 114.701 30.5687 114.701 30.718C114.701 30.774 114.692 30.8347 114.673 30.9C114.664 30.956 114.641 31.012 114.603 31.068L111.355 35.59L111.537 34.904V39.426C111.537 39.5847 111.481 39.72 111.369 39.832C111.267 39.944 111.141 40 110.991 40C110.823 40 110.683 39.944 110.571 39.832C110.469 39.72 110.417 39.5847 110.417 39.426V35.016L110.515 35.38L107.365 31.124C107.309 31.0493 107.267 30.9793 107.239 30.914C107.221 30.8393 107.211 30.7693 107.211 30.704C107.211 30.5453 107.277 30.4147 107.407 30.312C107.538 30.2 107.669 30.144 107.799 30.144C107.986 30.144 108.14 30.2327 108.261 30.41L111.159 34.386L110.893 34.344L113.679 30.424C113.801 30.2373 113.955 30.144 114.141 30.144Z" fill="#ADADAD"/>
</g>
<defs>
<filter id="filter0_d_92_1927" x="0" y="2.5" width="47" height="47" filterUnits="userSpaceOnUse" color-interpolation-filters="sRGB">
<feFlood flood-opacity="0" result="BackgroundImageFix"/>
<feColorMatrix in="SourceAlpha" type="matrix" values="0 0 0 0 0 0 0 0 0 0 0 0 0 0 0 0 0 0 127 0" result="hardAlpha"/>
<feOffset dy="4"/>
<feGaussianBlur stdDeviation="2"/>
<feComposite in2="hardAlpha" operator="out"/>
<feColorMatrix type="matrix" values="0 0 0 0 0 0 0 0 0 0 0 0 0 0 0 0 0 0 0.25 0"/>
<feBlend mode="normal" in2="BackgroundImageFix" result="effect1_dropShadow_92_1927"/>
<feBlend mode="normal" in="SourceGraphic" in2="effect1_dropShadow_92_1927" result="shape"/>
</filter>
<filter id="filter1_d_92_1927" x="47" y="0" width="108" height="52" filterUnits="userSpaceOnUse" color-interpolation-filters="sRGB">
<feFlood flood-opacity="0" result="BackgroundImageFix"/>
<feColorMatrix in="SourceAlpha" type="matrix" values="0 0 0 0 0 0 0 0 0 0 0 0 0 0 0 0 0 0 127 0" result="hardAlpha"/>
<feOffset dy="4"/>
<feGaussianBlur stdDeviation="2"/>
<feComposite in2="hardAlpha" operator="out"/>
<feColorMatrix type="matrix" values="0 0 0 0 0 0 0 0 0 0 0 0 0 0 0 0 0 0 0.25 0"/>
<feBlend mode="normal" in2="BackgroundImageFix" result="effect1_dropShadow_92_1927"/>
<feBlend mode="normal" in="SourceGraphic" in2="effect1_dropShadow_92_1927" result="shape"/>
</filter>
</defs>
</svg>
